<svg viewBox="0 0 512 512" version="1.1" xmlns="http://www.w3.org/2000/svg"><rect width="512" height="512" rx="64" fill="#1b2040"/><rect width="512" height="310" rx="64" fill="#ff8d5f"/><path d="m188.8 66.82q3.84 13.12 8.32 29.76 4.8 16.32 9.92 33.92 5.44 17.6 10.88 35.2t10.56 32.64q4.16-16.32 8.32-35.52 4.48-19.2 8.32-39.68t7.36-40.64q3.84-20.48 7.04-39.36h51.84q-11.2 55.68-25.92 112.96-14.4 57.28-31.36 108.8h-45.76q-11.2-30.72-21.76-64.32-10.56-33.92-20.8-67.84-10.24 33.92-20.48 67.84-10.24 33.6-21.44 64.32h-45.76q-16.96-51.52-31.68-108.8-14.4-57.28-25.6-112.96h54.08q3.2 18.88 7.04 39.36 3.84 20.16 8 40.64t8.32 39.68q4.48 19.2 8.96 35.52 5.76-15.68 11.2-33.28t10.56-35.2 9.28-33.92q4.48-16.32 8-29.12zm215.04 160q10.56 0 17.28-1.6 7.04-1.92 11.2-4.8 4.16-3.2 5.76-7.36t1.6-9.28q0-10.88-10.24-17.92-10.24-7.36-35.2-15.68-10.88-3.84-21.76-8.64-10.88-5.12-19.52-12.48-8.64-7.68-14.08-18.24-5.44-10.88-5.44-26.24 0-15.36 5.76-27.52 5.76-12.48 16.32-21.12t25.6-13.12q15.04-4.8 33.92-4.8 22.4 0 38.72 4.8t26.88 10.56l-14.4 39.36q-9.28-4.8-20.8-8.32-11.2-3.84-27.2-3.84-17.92 0-25.92 5.12-7.68 4.8-7.68 15.04 0 6.08 2.88 10.24t8 7.68q5.44 3.2 12.16 6.08 7.04 2.56 15.36 5.44 17.28 6.4 30.08 12.8 12.8 6.08 21.12 14.4 8.64 8.32 12.8 19.52t4.16 27.2q0 31.04-21.76 48.32-21.76 16.96-65.6 16.96-14.72 0-26.56-1.92-11.84-1.6-21.12-4.16-8.96-2.56-15.68-5.44-6.4-2.88-10.88-5.44l14.08-39.68q9.92 5.44 24.32 9.92 14.72 4.16 35.84 4.16z" fill="#1b2040"/><path d="m110.96 449.15q6.1611 0 10.082-.9335 4.1074-1.1202 6.5345-2.8005 2.4271-1.867 3.3606-4.2941t.9335-5.4143q0-6.3478-5.9744-10.455-5.9744-4.2941-20.537-9.1483-6.3478-2.2404-12.696-5.0409-6.3478-2.9872-11.389-7.2813-5.0409-4.4808-8.2148-10.642-3.1739-6.3478-3.1739-15.309t3.3606-16.056q3.3606-7.2813 9.5217-12.322t14.936-7.6547q8.7749-2.8005 19.79-2.8005 13.069 0 22.591 2.8005t15.683 6.1611l-8.4015 22.964q-5.4143-2.8005-12.136-4.8542-6.5345-2.2404-15.87-2.2404-10.455 0-15.123 2.9872-4.4808 2.8005-4.4808 8.7749 0 3.5473 1.6803 5.9744t4.6675 4.4808q3.1739 1.867 7.0946 3.5473 4.1074 1.4936 8.9616 3.1739 10.082 3.734 17.55 7.468 7.468 3.5473 12.322 8.4015 5.0409 4.8542 7.468 11.389t2.4271 15.87q0 18.11-12.696 28.192-12.696 9.8951-38.274 9.8951-8.5882 0-15.496-1.1202-6.9079-.9335-12.322-2.4271-5.2276-1.4936-9.1483-3.1739-3.734-1.6803-6.3478-3.1739l8.2148-23.151q5.7877 3.1739 14.189 5.7877 8.5882 2.4271 20.91 2.4271zm158.32-93.35q2.2404 7.6547 4.8542 17.363 2.8005 9.5217 5.7877 19.79 3.1739 10.268 6.3478 20.537t6.1611 19.043q2.4271-9.5217 4.8542-20.724 2.6138-11.202 4.8542-23.151t4.2941-23.711q2.2404-11.949 4.1074-22.964h30.245q-6.5345 32.486-15.123 65.905-8.4015 33.419-18.297 63.478h-26.698q-6.5345-17.923-12.696-37.527-6.1611-19.79-12.136-39.58-5.9744 19.79-11.949 39.58-5.9744 19.604-12.509 37.527h-26.698q-9.8951-30.059-18.483-63.478-8.4015-33.419-14.936-65.905h31.552q1.867 11.015 4.1074 22.964 2.2404 11.762 4.6675 23.711t4.8542 23.151q2.6138 11.202 5.2276 20.724 3.3606-9.1483 6.5345-19.417 3.1739-10.268 6.1611-20.537t5.4143-19.79q2.6138-9.5217 4.6675-16.99zm90.176 115.57v-129.38h87.376v24.458h-58.25v25.391h51.716v23.898h-51.716v31.179h62.544v24.458z" fill="#ff8d5f"/></svg>
